<?xml version="1.0" standalone="no"?>
<!DOCTYPE svg PUBLIC "-//W3C//DTD SVG 1.1//EN" "http://www.w3.org/Graphics/SVG/1.1/DTD/svg11.dtd" >
<svg xmlns="http://www.w3.org/2000/svg" xmlns:xlink="http://www.w3.org/1999/xlink" version="1.1" viewBox="-10 0 1034 1024">
   <path fill="currentColor"
d="M512 986q-24 0 -45 -9.5t-38 -26.5q-17 -16 -26 -37.5t-9 -45.5t9 -45t26 -38t38 -26t45 -9t45 9t38 26t26 38t9 45t-9 45.5t-26 37.5q-17 17 -38 26.5t-45 9.5zM512 630q-24 0 -45 -9t-38 -26t-26 -38t-9 -45t9 -45t26 -38t38 -26t45 -9t45 9t38 26t26 38t9 45t-9 45
t-26 38t-38 26t-45 9zM512 275q-24 0 -45 -9t-38 -26t-26 -38t-9 -45t9 -45.5t26 -37.5q17 -17 38 -26.5t45 -9.5t45 9.5t38 26.5q17 16 26 37.5t9 45.5t-9 45t-26 38t-38 26t-45 9z" />
</svg>
