<?xml version="1.0" standalone="no"?>
<!DOCTYPE svg PUBLIC "-//W3C//DTD SVG 1.1//EN" "http://www.w3.org/Graphics/SVG/1.1/DTD/svg11.dtd" >
<svg xmlns="http://www.w3.org/2000/svg" xmlns:xlink="http://www.w3.org/1999/xlink" version="1.1" viewBox="-10 0 1034 1024">
   <path fill="currentColor"
d="M787 483q-45 0 -86 18q-41 17 -71.5 47.5t-48.5 71.5q-18 40 -18 87t18 88q17 41 47.5 71t71.5 48q40 17 87 17t88 -17q41 -18 71 -48t48 -71q17 -41 17 -88t-17 -87q-18 -41 -48 -71.5t-71 -47.5q-41 -18 -88 -18v0zM890 720q-5 7 -17.5 6.5t-24.5 -0.5h-38v58
q0 14 -1 18.5t-6 7.5h-32q-7 -5 -6.5 -19t0.5 -26v-39h-39q-12 0 -25.5 0.5t-15.5 -6.5v-32q5 -7 18.5 -6.5t22.5 0.5h39v-58q0 -14 1.5 -20t11.5 -6q9 0 19 1t13 6v77h57q7 0 13.5 0.5t9.5 5.5v0v16v16zM518 704q0 -13 1 -26.5t4 -25.5h-2h-3q-8 -1 -16.5 -3.5t-16.5 -6.5
v0v0v0v0v0v0v0v0l-0.5 -0.5l-0.5 -0.5v0v0v0h-1v0l-0.5 -0.5l-0.5 -0.5h-1.5h-0.5v-1q-1 0 -1.5 -0.5t-1.5 -0.5v0h-1q-13 -8 -25 -18t-23 -21v0l-8 -8l-8 -8l-2 -2l-2 -2v0v-1l-4.5 -4.5l-4.5 -4.5q-1 -2 -2.5 -3t-2.5 -2l-1.5 -1.5l-0.5 -0.5l-1 -1h-1v-1v0q-4 -4 -8 -7.5
t-8 -6.5q-4 -4 -8.5 -7t-9.5 -6q-6 -3 -12.5 -4.5t-13.5 -1.5q-8 1 -15 3.5t-13 6.5q-1 0 -1 0.5t-1 0.5q-3 2 -6 4.5t-6 4.5q-4 4 -8 7.5t-7 7.5l-2 1l-12 12l-12 12l-20.5 20.5t-22.5 19.5q-6 4 -12 7.5t-12 7.5q-2 0 -3.5 1t-2.5 2q1 -1 2.5 -2t3.5 -1q-5 2 -9.5 3.5
t-9.5 2.5q2 0 4.5 -0.5t4.5 -1.5q-6 2 -13 4t-14 2h-3.5h-2.5h-0.5h-0.5h0.5h0.5q-18 1 -36 -6t-32 -17q-11 -7 -20.5 -16.5t-19.5 -18.5q1 0 1 0.5v0.5l-0.5 -0.5l-0.5 -0.5l-2.5 -2.5l-2.5 -2.5v195q0 32 22.5 54t53.5 22h468q-24 -33 -37 -72.5t-13 -83.5v0zM475 657
q-20 18 -42.5 27.5t-45.5 9.5h-1q-24 0 -47 -10.5t-45 -30.5q-11 -11 -21.5 -23t-20.5 -25l0.5 -0.5l1.5 -1.5q6 -6 12 -11.5t12 -12.5l4 -3l7 -7q0 -1 0.5 -1.5t1.5 -0.5v0q9 14 17.5 24t17.5 18q12 12 26.5 21.5t32.5 9.5q12 0 23 -4t22 -13l1 1l0.5 0.5l0.5 0.5
q9 8 16.5 13.5t14.5 10.5q3 1 5.5 2.5t5.5 3.5v0h1l0.5 0.5l0.5 0.5v0l-1 1v0zM410 580q0 1 1 1.5t2 1.5q-2 -2 -3.5 -3t-2.5 -3l0.5 0.5l0.5 0.5v1l2 1v0zM287 548v0v0h0.5t0.5 -1v0v0l1 -0.5t1 -1.5q-1 1 -2 1.5t-1 1.5v0zM157 649q-5 2 -10 2.5t-10 0.5v0v0q5 0 10 -0.5
t10 -2.5v0zM28 518v0v0v0v0q6 6 12 11.5t11 11.5l19.5 19.5t20.5 18.5l0.5 0.5t1.5 0.5v1h1v0v0v1v0q7 5 14.5 9t16.5 6q2 0 4 0.5t4 0.5h1h1v0h1.5h0.5v0q9 0 17.5 -4t15.5 -9h0.5h0.5v0v0v0l0.5 -0.5l0.5 -0.5l0.5 -0.5l0.5 -0.5q1 0 1.5 -1t1.5 -1l1 -1l1 -1v0h1v0v-1v0
v0h1v0v0v0l1.5 -1.5l1.5 -1.5v0v0h1v-1v0v0q1 0 1.5 -1t1.5 -1v-1h0.5h0.5v0v-1q1 0 1.5 -1t1.5 -1v-1v0v0q2 -2 4.5 -4t4.5 -4l3 -3l3 -3q4 -4 8 -7.5t7 -6.5q5 -5 9.5 -9t8.5 -9q0 1 -1 1.5t-1 1.5q3 -3 6 -5.5t6 -5.5q-2 1 -3 2.5t-3 2.5l4 -4t4 -3q-1 0 -1.5 0.5
t-0.5 1.5q5 -5 11.5 -10.5t13.5 -9.5q5 -4 11.5 -7t12.5 -6q2 0 3.5 -0.5t3.5 -1.5v0v0q1 0 2 -0.5t3 -0.5q1 0 2.5 -0.5t2.5 -0.5v0v0v0v0h1q3 -1 5.5 -1t5.5 -1v0v0v0v0v0v0q16 0 31 4.5t29 12.5l-1.5 -1.5t-1.5 -0.5q1 1 2.5 1.5t3.5 1.5q-1 0 -1.5 -0.5t-1.5 -0.5
q10 6 19.5 13.5t17.5 15.5l10 10l10 10l3.5 3.5l3.5 3.5l3.5 3.5t2.5 3.5h1l1 2q1 0 1.5 0.5l0.5 0.5l1.5 1.5l1.5 1.5l8.5 8.5t9.5 8.5l1.5 1.5l1.5 1.5q3 2 5.5 4t5.5 3q7 5 14.5 8t16.5 4q3 0 6.5 -0.5t6.5 -1.5q26 -61 78.5 -103t119.5 -55v-262q0 -18 -7.5 -33
t-20.5 -26l-6.5 26l-2.5 10q-19 66 -41 136t-50 138q-13 33 -31.5 73.5t-43.5 80.5v0h-2h-2l-0.5 0.5t-1.5 0.5q-3 0 -7 -1t-8 -3q-7 -4 -13.5 -8.5t-12.5 -9.5q0 -1 -0.5 -1.5t-1.5 -0.5l1 -3q1 -1 2 -2.5t2 -3.5q23 -35 40 -72.5t31 -73.5q26 -64 49.5 -137t46.5 -160
l0.5 -1.5l1.5 -4.5h-548q2 6 2.5 9l0.5 3q18 66 41 141.5t53 150.5q8 20 17.5 42.5t20.5 44.5q0 1 -0.5 1t-1.5 1v0v0q-6 6 -12 11.5t-12 10.5q-3 3 -6 6.5t-6 6.5q-1 0 -1.5 0.5l-1.5 1.5v-1q-13 -26 -24 -52t-20 -49q-26 -66 -49 -135t-42 -140v0q-3 -10 -5.5 -20.5
t-5.5 -20.5q-16 10 -26 26.5t-10 37.5v338q1 0 2 1l2 2v0v0v0zM24 589v0q2 1 3 2.5t2 2.5v0v0q-1 -1 -2 -2.5t-3 -2.5v0z" />
</svg>
