<?xml version="1.0" standalone="no"?>
<!DOCTYPE svg PUBLIC "-//W3C//DTD SVG 1.1//EN" "http://www.w3.org/Graphics/SVG/1.1/DTD/svg11.dtd" >
<svg xmlns="http://www.w3.org/2000/svg" xmlns:xlink="http://www.w3.org/1999/xlink" version="1.1" viewBox="-10 0 1034 1024">
   <path fill="currentColor"
d="M784 483q-46 0 -86 18q-41 17 -71.5 47.5t-48.5 71.5q-18 40 -18 87t17 88q18 41 48 71t71 48q41 17 88 17t88 -17q40 -18 70.5 -48t48.5 -71q17 -41 17 -88t-17 -87q-18 -41 -48 -71.5t-71 -47.5q-41 -18 -88 -18v0zM886 720q-4 7 -16.5 6.5t-24.5 -0.5h-39v28v30
t-0.5 18.5t-5.5 7.5h-16h-16q-7 -5 -6.5 -19t0.5 -26v-39h-39q-12 0 -25.5 0.5t-15.5 -6.5v-16v-16q4 -7 18 -6.5t23 0.5h39v-28v-30t1.5 -20t10.5 -6q10 0 20 1t12 6v8v11v58h58q7 0 13.5 0.5t8.5 5.5v0v16v16v0zM694 96h-608q-28 0 -49 21t-21 49v608q0 29 21 50t49 21
h484q-20 -31 -31 -67t-11 -77t0 -28t0 9q-17 12 -34 19.5t-36 12.5q-56 15 -109 6t-97 -37t-74 -73q-31 -45 -40 -101h32q7 53 41.5 97t82.5 66q65 29 128.5 17t111.5 -55q10 -34 27 -63t41 -53v-6v-6h3.5h5.5q3 0 5 -4t5 -6q-15 -5 -21 -19.5t8 -28.5q17 -17 33.5 -5.5
t14.5 31.5q24 -15 52 -23.5t57 -8.5v-276q0 -28 -21 -49t-50 -21v0zM477 237q19 -19 40 0t1 38q-19 22 -39.5 1.5t-1.5 -39.5v0zM176 493q-19 21 -38.5 1t-3.5 -40q20 -19 39.5 0.5t2.5 38.5zM595 490h-406q7 -17 1.5 -29.5t-17.5 -22.5l281 -172q3 -5 -18 -9t-23 -4
q-45 -4 -85 8q-41 12 -74 36.5t-55 60.5t-29 80q-8 -2 -16.5 -1t-15.5 1q9 -74 59.5 -131t122.5 -77q36 -9 72 -9t72 9q-10 15 -9 30.5t15 27.5l-262 166h384q0 10 -1 17.5t1 14.5zM598 451l-92 -153l28 -16l93 153l-25 16h-4zM554 282q28 24 49 58t31 70z" />
</svg>
