<?xml version="1.0" standalone="no"?>
<!DOCTYPE svg PUBLIC "-//W3C//DTD SVG 1.1//EN" "http://www.w3.org/Graphics/SVG/1.1/DTD/svg11.dtd" >
<svg xmlns="http://www.w3.org/2000/svg" xmlns:xlink="http://www.w3.org/1999/xlink" version="1.1" viewBox="-10 0 1042 1024">
   <path fill="currentColor"
d="M960 275q14 15 41 37.5t19 56.5q-5 21 -25.5 39t-34.5 34q-34 33 -65.5 64.5t-66.5 65.5q-11 11 -33.5 35.5t-41.5 19.5q-16 -5 -16.5 -33.5t-0.5 -49.5v-100q-91 1 -172 16q-80 15 -143 49t-106 88t-59 133q-2 11 -6 20t-13 9q-23 0 -20 -44.5t5 -63.5q8 -88 41 -153
t83 -112q36 -32 76 -56q41 -24 89 -40t104 -25q55 -8 121 -9q8 -26 0.5 -99t22.5 -70q23 4 41 25t32 35q30 31 62 62t66 66v0zM939 612q-4 58 0.5 106t-5.5 88q-12 52 -52 89t-99 42q-38 3 -80 1.5t-82 -1.5h-322q-40 0 -80.5 1.5t-77.5 -6.5q-51 -11 -90 -53.5t-42 -99.5
q-5 -61 -2.5 -129.5t2.5 -137.5t-2.5 -137t2.5 -128q4 -67 49.5 -111t107.5 -49q60 -4 119 -2t118 2h237q-2 16 -3 31.5t-1 32.5q-26 5 -48 8t-44 10q-19 4 -38.5 14t-40.5 11q-35 5 -77.5 2.5t-78.5 -2.5h-79q-44 0 -74.5 6t-40.5 35q-8 24 -6 65t2 73v280v107t40 68
q26 9 77 6.5t81 -2.5h404q44 0 74 -5t41 -36q5 -16 1.5 -37t2.5 -41q2 -7 11.5 -13.5t16.5 -12.5q21 -19 39.5 -40.5t39.5 -34.5z" />
</svg>
