<?xml version="1.0" standalone="no"?>
<!DOCTYPE svg PUBLIC "-//W3C//DTD SVG 1.1//EN" "http://www.w3.org/Graphics/SVG/1.1/DTD/svg11.dtd" >
<svg xmlns="http://www.w3.org/2000/svg" xmlns:xlink="http://www.w3.org/1999/xlink" version="1.1" viewBox="-10 0 1034 1024">
   <path fill="currentColor"
d="M266 531q4 -19 -0.5 -34t-19.5 -27q44 -26 87 -53l86 -54t87 -54q43 -27 86 -53q-38 -12 -76.5 -13.5t-77.5 10.5q-38 9 -71 30t-60 50q-26 29 -43 64t-24 73q-10 -4 -19.5 -4t-18.5 4q9 -64 42 -116.5t86 -91.5q64 -48 138 -54t137 13q-7 7 -9.5 16t-0.5 19q0 10 6 18.5
t13 13.5q-40 25 -81 50q-41 26 -82 51.5t-81 51.5q-41 25 -82 52h477q0 5 -1.5 9.5t-1.5 9.5v9.5t3 9.5h-493h-6zM774 550q8 8 17.5 10t21.5 0q0 14 -5.5 28.5t-10.5 29.5q-17 40 -42 75.5t-61 61.5q-36 28 -77 43q-41 16 -84 19.5t-86 -4.5q-43 -9 -82 -29
q-77 -41 -115 -105.5t-45 -121.5q9 5 19 5t19 -5q12 62 45.5 109.5t89.5 79.5q33 19 70.5 28t76.5 7q48 -3 89 -20t77 -51q36 -33 56.5 -72.5t30.5 -87.5v0h-4zM797 467q-10 0 -18.5 6t-13.5 13q-29 -48 -58 -94t-61 -94q10 0 19 -6.5t13 -16.5q29 48 59.5 94.5t59.5 94.5v0
v3zM186 512q0 -14 10 -24.5t25 -10.5q14 0 24.5 10.5t10.5 24.5t-10.5 24.5t-24.5 10.5q-15 0 -25 -10.5t-10 -24.5v0v0zM803 480q15 0 25 10.5t10 24.5q0 15 -10 25t-25 10q-14 0 -23 -10t-9 -25q0 -14 10.5 -24.5t24.5 -10.5h-3zM605 250q0 -15 10.5 -25.5t24.5 -10.5
q12 0 22 10.5t10 25.5q0 14 -10.5 23t-24.5 9q-15 0 -23.5 -10.5t-8.5 -25.5v0v4zM704 275q38 34 64 74.5t38 88.5v0v0q-26 -40 -51 -81t-51 -82v0v0v0z" />
</svg>
