<?xml version="1.0" standalone="no"?>
<!DOCTYPE svg PUBLIC "-//W3C//DTD SVG 1.1//EN" "http://www.w3.org/Graphics/SVG/1.1/DTD/svg11.dtd" >
<svg xmlns="http://www.w3.org/2000/svg" xmlns:xlink="http://www.w3.org/1999/xlink" version="1.1" viewBox="-10 0 1044 1024">
   <path fill="currentColor"
d="M946 0h-74q-2 6 -2.5 8.5l-0.5 2.5q-16 59 -32 113q-15 55 -31.5 105t-32.5 96q-17 46 -34 90q-19 49 -42.5 99.5t-53.5 98.5q-2 2 -3 4t-3 4l-2 4q1 0 2 1l1 1q9 8 17.5 14t18.5 11q5 2 10 3.5t10 1.5h1.5h1.5t2 -0.5t2 -0.5h1q34 -55 59.5 -109.5t42.5 -99.5
q19 -46 36 -93q17 -48 32 -95t29 -93q13 -47 26 -92l5.5 -21.5t13.5 -52.5v0zM910 520q-5 1 -9.5 3.5t-8.5 4.5q0 1 -0.5 1h-0.5v0h-1q-1 1 -2 1.5t-2 1.5v0v0q-1 1 -2 1.5t-2 0.5v1h-1v1h-1.5t-0.5 1h-0.5h-0.5v0l-0.5 0.5l-0.5 0.5q-17 12 -33 27t-31 30v0l-10 10l-10 10
q-2 1 -3.5 2.5l-3.5 3.5v0q-8 8 -16.5 15.5t-16.5 15.5h-0.5h-0.5v0l-2.5 2.5t-3.5 2.5q-12 9 -26 16t-29 6q-12 -1 -22 -5.5t-20 -10.5q-5 -3 -9.5 -6t-8.5 -6q9 7 19 13.5t20 9.5q-12 -4 -23 -11.5t-21 -15.5q1 1 2.5 2t2.5 2q-7 -6 -13.5 -12.5l-12.5 -12.5l-1.5 -1.5
l-1.5 -1.5l-1.5 -1.5l-1.5 -1.5l-1 -2l-1 -1q-2 -2 -4.5 -4t-4.5 -4v0q-2 -3 -4.5 -5.5l-5.5 -5.5q-6 -7 -13 -13.5t-14 -13.5q-12 -12 -25.5 -22.5t-29.5 -19.5q3 1 5 2.5t4 2.5q-20 -12 -41.5 -18.5t-44.5 -5.5q6 -1 12 -0.5t11 0.5q-9 -1 -18.5 -0.5t-19.5 1.5v0.5v0.5v0
v0v0v0v0q-2 0 -4 0.5t-4 0.5q-2 1 -3.5 1t-2.5 1h-0.5h-0.5q-2 1 -4 1.5t-4 1.5q-9 3 -17.5 7.5t-16.5 9.5q-11 7 -21.5 16t-19.5 18q2 -3 5 -5.5t6 -4.5q-5 4 -10 8.5t-10 9.5q1 -1 2 -1.5t2 -1.5q-7 6 -13 11.5t-12 11.5v0q-5 5 -10 9.5t-10 9.5l-4.5 4.5l-4.5 4.5
q-3 3 -6 5.5t-6 5.5v0v0v0v0v0v0v0l-2 2l-2 2v0.5t-1 0.5v0l-1 1v0q-1 1 -2 1.5t-2 1.5v0.5v0.5v0v0q-1 0 -1 0.5v0.5q-1 1 -2 1.5t-2 1.5v0v0q-1 0 -1 0.5v0.5v0v0h-0.5t-0.5 1h-0.5t-0.5 1v0q-1 0 -1.5 0.5l-0.5 0.5q-1 1 -2.5 2t-2.5 2v0h-1q0 1 -0.5 1t-1.5 1v0v0v0v0v0
v0q-10 7 -21.5 12t-23.5 6v0h-1.5h-1.5h-1h-0.5h-1.5q-6 0 -12.5 -1.5t-12.5 -4.5q3 2 6.5 3t7.5 1q-11 -2 -21.5 -7.5t-19.5 -12.5l-1 -1v0v0v0l-1 -1h-1q0 -1 -1 -1.5l-1 -0.5q-14 -12 -27.5 -25t-26.5 -27v0q-8 -7 -15.5 -15t-15.5 -15v-1v0v0v0v0v0q-3 -2 -5.5 -4.5
l-4.5 -4.5q-1 0 -1 -0.5v-0.5q-1 0 -1.5 -1t-1.5 -1v99v1v0l8 8l8 8l-8 -8t-8 -9v1q16 17 33.5 33.5t36.5 29.5q20 15 46.5 25t52.5 6q10 0 19.5 -2.5t18.5 -5.5q-12 4 -23.5 6t-22.5 2q15 0 30 -3.5t29 -10.5q-2 1 -4.5 2t-4.5 2q2 -1 4.5 -2t4.5 -2q9 -4 17 -9.5t15 -10.5
q16 -12 30.5 -26t28.5 -28q9 -8 17 -16.5t16 -16.5l2 -2q5 -5 10 -9.5t10 -9.5v0v0v0v0l-1 1v0l2 -2t3 -2q-1 1 -2 1.5t-2 1.5q5 -4 9 -7l8 -6q1 0 1.5 -0.5l0.5 -0.5q9 -5 18.5 -8.5t20.5 -4.5q9 -1 18 1.5t17 6.5q7 4 13 8t11 9q6 4 11 9t11 10v0.5t1 0.5l0.5 0.5l0.5 0.5
q1 1 1.5 2t1.5 1l3.5 3.5l3.5 3.5v0l6.5 6.5l6.5 6.5v0l-0.5 -0.5l-1.5 -1.5l4 4l4 4l-2 -2l-2 -2l-2 -2q1 2 2.5 3t2.5 3q6 5 11 10.5t11 11.5v0q15 15 31 28.5t35 24.5v0h1q0 1 1 1.5t2 0.5v0q1 0 1.5 0.5l0.5 0.5q1 0 1.5 0.5t1.5 0.5v0.5v0.5v0v0v0h1h1v1v-1v0v0v0
q11 6 22 9.5t23 4.5q15 2 30 0t29 -7q-13 4 -25.5 6t-25.5 1q13 1 26.5 -1t25.5 -7v1h-1v0v0v0h0.5h0.5v0v0v-0.5v-0.5h1v0v0v0h1v0v0q1 0 1 -0.5v-0.5h1q1 0 2 -0.5t2 -0.5v-1v0v0h1h0.5t1.5 -1v0h0.5h0.5l0.5 -0.5l0.5 -0.5v0h0.5t0.5 -1q2 0 3 -0.5t2 -1.5v0v0
q1 0 1 -0.5t1 -0.5q1 -1 2.5 -1.5t3.5 -1.5v0v0q2 -2 4.5 -3t4.5 -3q1 -1 2 -1.5t2 -1.5v0h1l1 -1l1 -0.5t2 -1.5v0l1 -1v0v0l0.5 -0.5l0.5 -0.5q1 0 1 -0.5t1 -0.5q19 -15 37 -32t35 -35v0q5 -4 9 -8.5t9 -9.5l1 -1l1 -1l1 -1q2 -2 3.5 -3t2.5 -3q4 -4 8.5 -8t8.5 -7
t7.5 -6t7.5 -6v0h1v0v0v0v0q1 0 3 -1t4 -3l1 -0.5l1 -0.5q0 -1 0.5 -1h1.5l1 -0.5t2 -0.5q10 -5 21.5 -6.5t22.5 1.5q5 2 9.5 4t8.5 4v0v0h0.5h0.5v0v0l1 1h0.5h0.5v0.5v0.5v0h1v0l0.5 0.5t1.5 0.5v0v0v0l1 1v0l0.5 0.5l0.5 0.5h1l1 1h0.5t0.5 1h0.5h0.5v0v0v0q1 1 1.5 1
t0.5 1v0v0v0h1q3 2 6 4.5t6 5.5v0h1v0v1v0v-86q-17 -8 -36 -12.5t-41 -2.5q-9 1 -18.5 3.5t-18.5 6.5v0zM910 520q4 -2 8 -3.5t8 -2.5l-12 4t-11 5q1 -1 3 -2t4 -1zM622 756l-1 -0.5l-1 -0.5h-0.5t-0.5 -1q-4 -1 -7.5 -3t-6.5 -4q-10 -7 -20.5 -14.5t-21.5 -17.5l-1.5 -1.5
l-1.5 -1.5v0q-16 11 -31 17t-30 6q-25 0 -44.5 -13.5t-36.5 -28.5q-12 -11 -23.5 -25t-24.5 -32v0q-1 0 -1.5 1t-1.5 1l-9 9l-5 6q-8 8 -16.5 16t-16.5 16l-1 1t-2 1q14 18 28 34.5t30 30.5q30 28 61 42t64 14h1q32 0 62 -13t58 -38l1 -1v0zM132 20q12 44 26 92
q14 49 30 99.5t34 101.5q17 52 38 103q10 26 23 56.5t28 61.5q0 1 -1 1.5l-1 0.5l-0.5 0.5l-0.5 0.5q-8 7 -16 14.5t-16 15.5q-4 4 -8.5 8t-8.5 8q-1 1 -1.5 2t-1.5 1l-1 -1q-17 -35 -32 -70.5t-28 -66.5q-17 -44 -34 -90q-16 -46 -31.5 -93t-30.5 -94q-14 -48 -27 -96h-1
q-5 -19 -9.5 -37.5t-9.5 -37.5h76q2 9 3 14.5l1 5.5v0z" />
</svg>
