<?xml version="1.0" standalone="no"?>
<!DOCTYPE svg PUBLIC "-//W3C//DTD SVG 1.1//EN" "http://www.w3.org/Graphics/SVG/1.1/DTD/svg11.dtd" >
<svg xmlns="http://www.w3.org/2000/svg" xmlns:xlink="http://www.w3.org/1999/xlink" version="1.1" viewBox="-10 0 1034 1024">
   <path fill="currentColor"
d="M1011 478q4 61 -4 114q-9 54 -27 100.5t-43 85.5t-54 71t-64 60q-36 28 -78 49.5t-90 34.5q-48 14 -103 18q-57 4 -111 -4q-53 -9 -100 -27t-88 -43q-40 -25 -72 -54q-33 -30 -61 -66q-28 -35 -49 -76.5t-35 -89.5q-13 -48 -17 -103q-6 -62 2 -116t25.5 -100t43.5 -84
q25 -39 55 -71t62.5 -59t75.5 -50q40 -21 91.5 -35.5t107.5 -19.5q61 -4 115 5q53 9 100 27t86 43t70 53q30 28 58 63q28 36 49.5 78.5t36.5 91.5q14 49 18 104v0zM710 439q15 -48 5 -89q-11 -40 -36.5 -69.5t-62.5 -46.5t-76 -21q-43 -3 -75 4.5t-64 21.5q-16 8 -38 22.5
t-22 30.5q0 15 12.5 26t21.5 23q10 12 20 26.5t21 14.5q8 0 13.5 -5t9.5 -8q28 -18 72.5 -20.5t53.5 37.5q10 37 -19 60.5t-53 44.5q-21 19 -37.5 41.5t-22.5 47.5q-3 15 -5 50t7 44q7 7 27.5 7h36.5h38t28 -7l9 -66q8 -26 36.5 -46t52.5 -46q15 -14 28 -34t19 -43v0z
M572 785v-32.5t-5 -29.5q-24 -3 -59 -6.5t-62 2.5q-16 3 -15.5 23t0.5 41q0 14 -1.5 35t7.5 31q10 10 30 8t36 -2q15 0 36.5 1t27.5 -9q8 -10 6.5 -29.5t-1.5 -32.5v0z" />
</svg>
