<?xml version="1.0" standalone="no"?>
<!DOCTYPE svg PUBLIC "-//W3C//DTD SVG 1.1//EN" "http://www.w3.org/Graphics/SVG/1.1/DTD/svg11.dtd" >
<svg xmlns="http://www.w3.org/2000/svg" xmlns:xlink="http://www.w3.org/1999/xlink" version="1.1" viewBox="-10 0 1044 1024">
   <path fill="currentColor"
d="M380 739q-7 -17 -12 -35l-10 -36h-115q14 24 32 45.5t39 39.5t45 31t52 22q-9 -16 -16.5 -32.5t-14.5 -34.5v0zM338 551q-1 -9 -1 -19v-20v-20t1 -19q1 -10 2 -19.5t3 -19.5h-133q-2 10 -4 19.5t-3 19.5q-1 9 -2 19t-1 20t1 20t2 19q1 10 3 19.5t4 19.5h133
q-2 -10 -3 -19.5t-2 -19.5zM666 356v0h57.5h57.5q-14 -24 -32 -45.5t-39 -39.5t-45 -31t-52 -22q9 16 16.5 32.5t14.5 34.5q7 17 12.5 35t9.5 36v0zM556 275q-9 -19 -20 -37t-24 -36q-13 18 -24 36t-20 37t-16.5 39.5t-13.5 41.5h148q-6 -21 -13.5 -41.5t-16.5 -39.5v0z
M380 285q7 -18 14.5 -34.5t16.5 -32.5q-28 9 -52 22t-45 31t-39 39.5t-32 45.5h115q4 -18 9.5 -36t12.5 -35v0zM468 749q9 19 20 37t24 36q13 -18 24 -36t20 -37t16.5 -39.5t13.5 -41.5h-148q6 21 13.5 41.5t16.5 39.5v0zM814 434h-132q1 10 2 19.5t2 19.5q1 9 1 19v20v20
t-1 19q-1 10 -2 19.5t-2 19.5h132q2 -10 4 -19.5t3 -18.5q2 -10 2.5 -20t0.5 -20t-0.5 -20t-2.5 -19q-1 -10 -3 -19.5t-4 -19.5zM944 786q38 -59 59 -128.5t21 -145.5q0 -106 -40 -199q-40 -94 -109.5 -163.5t-163.5 -109.5q-93 -40 -199 -40t-199 40q-94 40 -163.5 109.5
t-109.5 163.5q-40 93 -40 199t40 199q40 94 109.5 163.5t163.5 109.5q93 40 199 40q77 0 147.5 -21.5t130.5 -60.5l185 62q11 4 19.5 -4.5t5.5 -19.5l-56 -194v0zM871 663q-15 36 -36 67t-48 57q-26 27 -57 48t-66 36q-36 15 -74 23t-78 8v0q-40 0 -77.5 -8t-73.5 -23
t-67 -36t-57 -48q-27 -26 -48 -57t-36 -67t-23 -73.5t-8 -77.5t8 -78t23 -73q15 -36 36 -67t48 -57q26 -27 57 -48t67 -36t73.5 -23t77.5 -8t78 8t73 23q36 15 67 36t57 48q27 26 48 57t36 67q15 35 23 73t8 78t-8 77.5t-23 73.5v0zM604 434h-184q-1 10 -2 19.5t-2 19.5
q-1 9 -1 19v20v20t1 19q1 10 2 19.5t2 19.5h184q1 -10 2 -19.5t2 -18.5q1 -10 1 -20v-20v-20t-1 -19q-1 -10 -2 -19.5t-2 -19.5zM644 739q-7 18 -14.5 34.5t-16.5 32.5q28 -9 52 -22t45 -31t39 -39.5t32 -45.5h-115q-4 18 -9.5 36t-12.5 35v0z" />
</svg>
